<mxfile host="app.diagrams.net" modified="2021-06-14T04:39:34.562Z" agent="5.0 (Windows NT 10.0; Win64; x64) AppleWebKit/537.36 (KHTML, like Gecko) Chrome/88.0.4324.182 Safari/537.36" etag="K9y9Z0_oGC88Vb-lgRos" version="14.7.7" type="github">
  <diagram id="A0lXlWImKuz4DLp3JqtB" name="Page-1">
    <mxGraphModel dx="751" dy="725" grid="1" gridSize="10" guides="1" tooltips="1" connect="1" arrows="1" fold="1" page="1" pageScale="1" pageWidth="3300" pageHeight="4681" math="0" shadow="0">
      <root>
        <mxCell id="0" />
        <mxCell id="1" parent="0" />
        <mxCell id="HDIf9olH5PxdKGKlSlge-3" value="" style="edgeStyle=orthogonalEdgeStyle;rounded=0;orthogonalLoop=1;jettySize=auto;html=1;" parent="1" source="HDIf9olH5PxdKGKlSlge-1" target="HDIf9olH5PxdKGKlSlge-2" edge="1">
          <mxGeometry relative="1" as="geometry" />
        </mxCell>
        <mxCell id="HDIf9olH5PxdKGKlSlge-1" value="FUNCTION validation_length(length)" style="shape=process;whiteSpace=wrap;html=1;backgroundOutline=1;" parent="1" vertex="1">
          <mxGeometry x="490" y="140" width="240" height="70" as="geometry" />
        </mxCell>
        <mxCell id="HDIf9olH5PxdKGKlSlge-5" value="" style="edgeStyle=orthogonalEdgeStyle;rounded=0;orthogonalLoop=1;jettySize=auto;html=1;" parent="1" source="HDIf9olH5PxdKGKlSlge-2" target="HDIf9olH5PxdKGKlSlge-4" edge="1">
          <mxGeometry relative="1" as="geometry" />
        </mxCell>
        <mxCell id="HDIf9olH5PxdKGKlSlge-2" value="length = int(length)" style="rounded=1;whiteSpace=wrap;html=1;" parent="1" vertex="1">
          <mxGeometry x="495" y="270" width="230" height="40" as="geometry" />
        </mxCell>
        <mxCell id="HDIf9olH5PxdKGKlSlge-7" value="" style="edgeStyle=orthogonalEdgeStyle;rounded=0;orthogonalLoop=1;jettySize=auto;html=1;" parent="1" source="HDIf9olH5PxdKGKlSlge-4" target="HDIf9olH5PxdKGKlSlge-6" edge="1">
          <mxGeometry relative="1" as="geometry" />
        </mxCell>
        <mxCell id="HDIf9olH5PxdKGKlSlge-4" value="PRINT(&quot; &quot;)" style="rounded=1;whiteSpace=wrap;html=1;" parent="1" vertex="1">
          <mxGeometry x="495" y="350" width="230" height="40" as="geometry" />
        </mxCell>
        <mxCell id="HDIf9olH5PxdKGKlSlge-9" value="" style="edgeStyle=orthogonalEdgeStyle;rounded=0;orthogonalLoop=1;jettySize=auto;html=1;" parent="1" source="HDIf9olH5PxdKGKlSlge-6" target="HDIf9olH5PxdKGKlSlge-8" edge="1">
          <mxGeometry relative="1" as="geometry" />
        </mxCell>
        <mxCell id="HDIf9olH5PxdKGKlSlge-6" value="READ temp" style="shape=parallelogram;perimeter=parallelogramPerimeter;whiteSpace=wrap;html=1;fixedSize=1;" parent="1" vertex="1">
          <mxGeometry x="495" y="430" width="229" height="50" as="geometry" />
        </mxCell>
        <mxCell id="HDIf9olH5PxdKGKlSlge-11" value="" style="edgeStyle=orthogonalEdgeStyle;rounded=0;orthogonalLoop=1;jettySize=auto;html=1;" parent="1" source="HDIf9olH5PxdKGKlSlge-8" target="HDIf9olH5PxdKGKlSlge-10" edge="1">
          <mxGeometry relative="1" as="geometry" />
        </mxCell>
        <mxCell id="HDIf9olH5PxdKGKlSlge-13" value="" style="edgeStyle=orthogonalEdgeStyle;rounded=0;orthogonalLoop=1;jettySize=auto;html=1;" parent="1" source="HDIf9olH5PxdKGKlSlge-8" target="HDIf9olH5PxdKGKlSlge-12" edge="1">
          <mxGeometry relative="1" as="geometry" />
        </mxCell>
        <mxCell id="HDIf9olH5PxdKGKlSlge-8" value="LEN(temp) &lt;=length" style="rhombus;whiteSpace=wrap;html=1;" parent="1" vertex="1">
          <mxGeometry x="537" y="520" width="145" height="100" as="geometry" />
        </mxCell>
        <mxCell id="HDIf9olH5PxdKGKlSlge-10" value="RETURN temp" style="ellipse;whiteSpace=wrap;html=1;" parent="1" vertex="1">
          <mxGeometry x="564.5" y="660" width="90" height="80" as="geometry" />
        </mxCell>
        <mxCell id="HDIf9olH5PxdKGKlSlge-15" value="" style="edgeStyle=orthogonalEdgeStyle;rounded=0;orthogonalLoop=1;jettySize=auto;html=1;" parent="1" source="HDIf9olH5PxdKGKlSlge-12" target="HDIf9olH5PxdKGKlSlge-14" edge="1">
          <mxGeometry relative="1" as="geometry" />
        </mxCell>
        <mxCell id="HDIf9olH5PxdKGKlSlge-12" value="PRINT(&quot;You cannot exceed &quot; + str(length) + &quot; characters&quot; )" style="rounded=1;whiteSpace=wrap;html=1;" parent="1" vertex="1">
          <mxGeometry x="730" y="550" width="160" height="40" as="geometry" />
        </mxCell>
        <mxCell id="ZWiJkeJj1nlKCDPd_Z-t-2" style="edgeStyle=orthogonalEdgeStyle;rounded=0;orthogonalLoop=1;jettySize=auto;html=1;" edge="1" parent="1" source="HDIf9olH5PxdKGKlSlge-14">
          <mxGeometry relative="1" as="geometry">
            <mxPoint x="610" y="330" as="targetPoint" />
            <Array as="points">
              <mxPoint x="1028" y="330" />
            </Array>
          </mxGeometry>
        </mxCell>
        <mxCell id="HDIf9olH5PxdKGKlSlge-14" value="PRINT(&quot;&quot;)" style="rounded=1;whiteSpace=wrap;html=1;" parent="1" vertex="1">
          <mxGeometry x="955" y="550" width="145" height="40" as="geometry" />
        </mxCell>
        <mxCell id="ZWiJkeJj1nlKCDPd_Z-t-1" value="True" style="text;html=1;align=center;verticalAlign=middle;resizable=0;points=[];autosize=1;strokeColor=none;" vertex="1" parent="1">
          <mxGeometry x="615" y="620" width="40" height="20" as="geometry" />
        </mxCell>
        <mxCell id="ZWiJkeJj1nlKCDPd_Z-t-3" value="False" style="text;html=1;align=center;verticalAlign=middle;resizable=0;points=[];autosize=1;strokeColor=none;" vertex="1" parent="1">
          <mxGeometry x="682" y="550" width="40" height="20" as="geometry" />
        </mxCell>
      </root>
    </mxGraphModel>
  </diagram>
</mxfile>
